<svg width="200" height="200" viewBox="0 0 200 200" fill="none" xmlns="http://www.w3.org/2000/svg">
<circle cx="165" cy="38" r="20" fill="#572AB9"/>
<circle cx="100" cy="100" r="20" fill="#572AB9"/>
<path d="M200 100C200 123.27 191.884 145.812 177.051 163.742C162.218 181.673 141.596 193.868 118.738 198.229C95.8799 202.589 72.2166 198.841 51.8246 187.631C31.4326 176.42 15.5888 158.449 7.02235 136.812C-1.54405 115.176 -2.2966 91.2298 4.89435 69.0983C12.0853 46.9669 26.7695 28.0361 46.4173 15.5672C66.0652 3.09831 89.4464 -2.12802 112.533 0.788528C135.62 3.70508 156.967 14.5819 172.897 31.5453L158.317 45.2362C145.574 31.6655 128.496 22.9641 110.027 20.6308C91.5571 18.2976 72.8521 22.4786 57.1339 32.4538C41.4156 42.4289 29.6682 57.5735 23.9155 75.2786C18.1627 92.9838 18.7648 112.141 25.6179 129.45C32.471 146.759 45.1461 161.136 61.4597 170.105C77.7733 179.073 96.7039 182.071 114.991 178.583C133.277 175.095 149.775 165.338 161.641 150.994C173.508 136.65 180 118.616 180 100H200Z" fill="#572AB9"/>
<path fill-rule="evenodd" clip-rule="evenodd" d="M189.49 110C195.175 110 200 105.685 200 100C200 94.3149 195.175 90 189.49 90L110 90C104.477 90 100 94.4772 100 100C100 105.523 104.477 110 110 110H189.49Z" fill="#572AB9"/>
<path fill-rule="evenodd" clip-rule="evenodd" d="M157.158 155.973C161.853 151.178 165.927 145.812 169.282 140L151.096 129.5C148.621 133.786 145.617 137.744 142.154 141.28L157.158 155.973Z" fill="#0F0936"/>
<path fill-rule="evenodd" clip-rule="evenodd" d="M157.158 155.973C161.853 151.178 165.927 145.812 169.282 140L151.095 129.5C148.621 133.786 145.617 137.744 142.154 141.28L157.158 155.973Z" fill="#0F0936"/>
<rect x="151" y="137.414" width="4.16752" height="6.04738" transform="rotate(-55 151 137.414)" fill="#E7D53B"/>
<rect x="147" y="142.193" width="4.16752" height="6.04738" transform="rotate(-50 147 142.193)" fill="#E7D53B"/>
<path fill-rule="evenodd" clip-rule="evenodd" d="M157.158 155.973C161.853 151.178 165.927 145.812 169.282 140L151.095 129.5C148.621 133.786 145.617 137.744 142.154 141.28L157.158 155.973Z" fill="#0F0936"/>
<path fill-rule="evenodd" clip-rule="evenodd" d="M51.4276 163.696C56.7589 167.773 62.5818 171.162 68.7592 173.784L76.9646 154.453C72.4087 152.519 68.1143 150.02 64.1825 147.014L51.4276 163.696Z" fill="#0F0936"/>
<rect x="151" y="137.414" width="4.16752" height="6.04738" transform="rotate(-55 151 137.414)" fill="#E7D53B"/>
<rect x="147" y="142.193" width="4.16752" height="6.04738" transform="rotate(-50 147 142.193)" fill="#E7D53B"/>
<rect x="65.0629" y="149.926" width="4.16752" height="6.04738" transform="rotate(34 65.0629 149.926)" fill="#E7D53B"/>
<rect x="66.68" y="161.95" width="4.16752" height="6.04738" transform="rotate(28 66.68 161.95)" fill="#E7D53B"/>
</svg>
